# xmcd
#
# Track frame offsets: 
#        150
#        14717
#        33724
#        51512
#        68838
#        84185
#        100027
#        114802
#        130817
#        149148
#        164387
#        179266
#
# Disc length: 2642 seconds
#
# Revision: 0
# Processed by: cddbd v1.5.2PL0 Copyright (c) Steve Scherf et al.
# Submitted via: ExactAudioCopyFreeDBPlugin 1.0
#
DISCID=a60a500c
DTITLE=Sheryl Crow - Feels Like Home
DYEAR=2013
DGENRE=Country
TTITLE0=Shotgun
TTITLE1=Easy
TTITLE2=Give It To Me
TTITLE3=We Oughta Be Drinkin'
TTITLE4=Callin' Me When I'm Lonely
TTITLE5=Waterproof Mascara
TTITLE6=Crazy Ain't Original
TTITLE7=Nobody's Business
TTITLE8=Homesick
TTITLE9=Homecoming Queen
TTITLE10=Best Of Times
TTITLE11=Stay At Home Mother
EXTD=
EXTT0=
EXTT1=
EXTT2=
EXTT3=
EXTT4=
EXTT5=
EXTT6=
EXTT7=
EXTT8=
EXTT9=
EXTT10=
EXTT11=
PLAYORDER=
